name analog
datacolumns 19
datarows 50
range 0.41050000000000003 0.435
endheader
time	ground_force_vx	ground_force_vy	ground_force_vz	ground_force_px	ground_force_py	ground_force_pz	l_ground_force_vx	l_ground_force_vy	l_ground_force_vz	l_ground_force_px	l_ground_force_py	l_ground_force_pz	ground_torque_x	ground_torque_y	ground_torque_z	l_ground_torque_x	l_ground_torque_y	l_ground_torque_z
0.41050000000000003	-0.0	-0.0	-0.0	6.228628158569336	22.679353713989254	-377.3236999511719	-0.9835338592529296	-20.433034896850582	-392.4160461425781	-0.0	-0.0	-0.0	-0.0	-0.0	-0.0	110305.6875	8379.0947265625	-12298.4072265625
0.41100000000000003	-0.0	-0.0	-0.0	5.969001770019531	23.11715507507324	-377.2923889160156	-0.709686279296875	-20.716947555541992	-391.0192565917969	-0.0	-0.0	-0.0	-0.0	-0.0	-0.0	110274.390625	8209.279296875	-11982.25
0.41150000000000003	-0.0	-0.0	-0.0	5.8551926612854	24.11349868774414	-378.5441589355469	-0.3626792132854461	-20.724390029907227	-388.69830322265625	-0.0	-0.0	-0.0	-0.0	-0.0	-0.0	109546.84375	8079.1005859375	-11919.984375
0.41200000000000003	-0.0	-0.0	-0.0	5.879669666290283	24.065208435058597	-377.1310424804688	-0.4199009537696838	-20.57895278930664	-387.6513977050781	-0.0	-0.0	-0.0	-0.0	-0.0	-0.0	109279.78125	8224.5263671875	-11768.96875
0.41250000000000003	-0.0	-0.0	-0.0	5.553985595703125	24.49430656433105	-377.60736083984375	0.1046003103256225	-20.538089752197266	-386.0991516113281	-0.0	-0.0	-0.0	-0.0	-0.0	-0.0	108916.734375	8232.3349609375	-11584.744140625
0.41300000000000003	-0.0	-0.0	-0.0	5.004146099090576	24.1236572265625	-376.4898071289063	0.1694043576717376	-20.851900100708008	-384.447509765625	-0.0	-0.0	-0.0	-0.0	-0.0	-0.0	108217.9453125	8335.9287109375	-11636.16015625
0.41350000000000003	-0.0	-0.0	-0.0	4.711345195770264	24.38813591003418	-376.3899841308594	0.1612906008958816	-20.57895278930664	-384.44769287109375	-0.0	-0.0	-0.0	-0.0	-0.0	-0.0	108107.0625	7896.35791015625	-11609.1474609375
0.41400000000000003	-0.0	-0.0	-0.0	4.120616436004639	24.7398738861084	-376.2372131347656	0.1855472028255462	-20.410398483276367	-381.65472412109375	-0.0	-0.0	-0.0	-0.0	-0.0	-0.0	107813.640625	8060.81005859375	-11665.73828125
0.41450000000000004	-0.0	-0.0	-0.0	4.057169437408447	25.037111282348636	-376.0690307617188	0.1938177049160003	-20.595277786254883	-380.9889831542969	-0.0	-0.0	-0.0	-0.0	-0.0	-0.0	107631.390625	7902.56689453125	-11355.9462890625
0.41500000000000004	-0.0	-0.0	-0.0	3.8909101486206055	25.232484817504883	-377.2773742675781	0.1381900906562805	-20.24208641052246	-381.0867309570313	-0.0	-0.0	-0.0	-0.0	-0.0	-0.0	107407.734375	7915.73876953125	-11490.54296875
0.41550000000000004	-0.0	-0.0	-0.0	3.6229872703552246	25.813203811645508	-378.0500183105469	0.1774215698242187	-20.41059112548828	-380.2261352539063	-0.0	-0.0	-0.0	-0.0	-0.0	-0.0	107290.546875	7879.64599609375	-11565.6884765625
0.41600000000000004	-0.0	-0.0	-0.0	3.1223678588867188	25.43901252746582	-380.3057556152344	0.194179892539978	-20.738910675048828	-380.1601867675781	-0.0	-0.0	-0.0	-0.0	-0.0	-0.0	107044.5859375	7885.892578125	-11444.2412109375
0.4165	-0.0	-0.0	-0.0	3.104827880859375	25.84781646728516	-378.0066833496094	0.1774215698242187	-20.6756649017334	-379.81060791015625	-0.0	-0.0	-0.0	-0.0	-0.0	-0.0	107034.5703125	7715.79150390625	-11562.828125
0.417	-0.0	-0.0	-0.0	2.890889883041382	26.07986831665039	-377.6543884277344	0.1519218981266021	-20.20027732849121	-379.2120971679688	-0.0	-0.0	-0.0	-0.0	-0.0	-0.0	106618.0234375	7672.68359375	-11506.1435546875
0.4175	-0.0	-0.0	-0.0	1.9893053770065308	26.02607727050781	-378.9268798828125	0.4264575839042663	-20.128833770751957	-377.3992614746094	-0.0	-0.0	-0.0	-0.0	-0.0	-0.0	106518.921875	7740.001953125	-11404.3759765625
0.418	-0.0	-0.0	-0.0	1.8734207153320312	26.222225189208984	-380.6216430664063	0.1059274524450302	-20.32255744934082	-377.8836975097656	-0.0	-0.0	-0.0	-0.0	-0.0	-0.0	106479.0	7786.21875	-11541.5205078125
0.4185	-0.0	-0.0	-0.0	1.757135987281799	25.90191650390625	-380.656494140625	0.4175115823745727	-20.217023849487305	-375.96044921875	-0.0	-0.0	-0.0	-0.0	-0.0	-0.0	106260.71875	7739.142578125	-11407.4404296875
0.419	-0.0	-0.0	-0.0	1.310937762260437	26.69379425048828	-380.6202087402344	0.3199268579483032	-19.889760971069336	-377.0150146484375	-0.0	-0.0	-0.0	-0.0	-0.0	-0.0	106090.6484375	7705.3935546875	-11496.9580078125
0.4195	-0.0	-0.0	-0.0	1.3290115594863892	26.41001319885254	-379.7408752441406	0.248529314994812	-19.79281997680664	-376.5614013671875	-0.0	-0.0	-0.0	-0.0	-0.0	-0.0	105900.1796875	7666.0068359375	-11369.12109375
0.42	-0.0	-0.0	-0.0	1.0153560638427734	26.302654266357425	-379.66845703125	-0.0887107849121093	-20.12853240966797	-375.6523132324219	-0.0	-0.0	-0.0	-0.0	-0.0	-0.0	106037.140625	7536.55517578125	-11316.0546875
0.4205	-0.0	-0.0	-0.0	0.8273144960403442	26.410341262817383	-378.8155212402344	-0.008910559117794	-19.907865524291992	-375.0940551757813	-0.0	-0.0	-0.0	-0.0	-0.0	-0.0	106308.3359375	7442.0107421875	-11265.6123046875
0.421	-0.0	-0.0	-0.0	0.1597637236118316	26.781648635864254	-379.7261657714844	-0.398638904094696	-19.63424491882324	-376.76995849609375	-0.0	-0.0	-0.0	-0.0	-0.0	-0.0	105938.1875	7432.810546875	-11520.92578125
0.4215	-0.0	-0.0	-0.0	-0.0423221886157989	26.696836471557617	-378.5346374511719	-0.611943781375885	-20.18070602416992	-375.6871337890625	-0.0	-0.0	-0.0	-0.0	-0.0	-0.0	106270.9140625	7519.4765625	-11654.4697265625
0.422	-0.0	-0.0	-0.0	-0.1364028751850128	27.128192901611328	-378.2557373046875	-0.4003041684627533	-19.881431579589844	-375.3738098144531	-0.0	-0.0	-0.0	-0.0	-0.0	-0.0	106320.0625	7629.63720703125	-11699.0458984375
0.4225	-0.0	-0.0	-0.0	-0.356842041015625	26.43011283874512	-379.8333435058594	-0.905437171459198	-19.45814514160156	-376.6985473632813	-0.0	-0.0	-0.0	-0.0	-0.0	-0.0	106495.5546875	7387.33447265625	-11649.212890625
0.423	-0.0	-0.0	-0.0	-1.2107067108154297	26.64999008178711	-379.630615234375	-1.153240203857422	-19.844860076904297	-377.5054321289063	-0.0	-0.0	-0.0	-0.0	-0.0	-0.0	106840.65625	7309.68701171875	-11516.6533203125
0.4235	-0.0	-0.0	-0.0	-0.1566413640975952	27.07890510559082	-378.7614440917969	-1.0181013345718384	-20.2492733001709	-376.9173583984375	-0.0	-0.0	-0.0	-0.0	-0.0	-0.0	106639.828125	7102.6357421875	-11679.3603515625
0.424	-0.0	-0.0	-0.0	-0.7524122595787048	26.49107551574707	-380.0216064453125	-0.9337798953056335	-20.146636962890625	-379.4176025390625	-0.0	-0.0	-0.0	-0.0	-0.0	-0.0	107056.4921875	7147.87060546875	-11660.6279296875
0.4245	-0.0	-0.0	-0.0	-0.8726193904876709	26.531658172607425	-379.6298828125	-0.8965027332305908	-19.89108657836914	-377.1946716308594	-0.0	-0.0	-0.0	-0.0	-0.0	-0.0	107228.6171875	7155.56787109375	-11758.931640625
0.425	-0.0	-0.0	-0.0	-0.6646056175231934	25.985980987548828	-380.0993347167969	-0.855201005935669	-19.87237930297852	-377.7447814941406	-0.0	-0.0	-0.0	-0.0	-0.0	-0.0	106987.90625	7145.669921875	-11587.294921875
0.4255	-0.0	-0.0	-0.0	-0.4164581596851349	26.30332374572754	-380.0216064453125	-0.8650100827217102	-20.206716537475582	-378.7546081542969	-0.0	-0.0	-0.0	-0.0	-0.0	-0.0	107124.9453125	7016.55908203125	-11769.6435546875
0.426	-0.0	-0.0	-0.0	-0.4955620169639587	25.630006790161133	-380.6891784667969	-1.074105739593506	-19.743408203125	-377.63128662109375	-0.0	-0.0	-0.0	-0.0	-0.0	-0.0	106480.984375	7036.03076171875	-11716.6708984375
0.4265	-0.0	-0.0	-0.0	-0.71368408203125	25.926958084106445	-381.3947448730469	-1.1628888845443726	-20.23527336120605	-376.7725830078125	-0.0	-0.0	-0.0	-0.0	-0.0	-0.0	106853.5703125	7122.08154296875	-11756.1533203125
0.427	-0.0	-0.0	-0.0	-0.1784210205078125	26.1641845703125	-379.9818420410156	-2.040348052978516	-20.392654418945312	-376.4236145019531	-0.0	-0.0	-0.0	-0.0	-0.0	-0.0	106450.28125	7235.23974609375	-11839.3408203125
0.4275	-0.0	-0.0	-0.0	-0.435932457447052	25.620868682861328	-378.1429138183594	-2.011038064956665	-20.313987731933597	-375.6102294921875	-0.0	-0.0	-0.0	-0.0	-0.0	-0.0	106379.4921875	7262.1376953125	-12037.1220703125
0.428	-0.0	-0.0	-0.0	-0.198759526014328	25.61090469360352	-377.7104187011719	-1.6360697746276855	-20.706716537475582	-374.9888305664063	-0.0	-0.0	-0.0	-0.0	-0.0	-0.0	106261.5390625	6978.78466796875	-11918.1201171875
0.4285	-0.0	-0.0	-0.0	-0.315921813249588	25.748464584350582	-377.9025268554688	-1.7346982955932615	-20.510303497314453	-375.72601318359375	-0.0	-0.0	-0.0	-0.0	-0.0	-0.0	106163.2265625	7238.64892578125	-11957.7490234375
0.429	-0.0	-0.0	-0.0	-0.1578152030706405	25.33362197875977	-379.66845703125	-1.8828301429748533	-20.32389640808105	-376.3854370117188	-0.0	-0.0	-0.0	-0.0	-0.0	-0.0	105933.6953125	6985.2080078125	-11882.1005859375
0.4295	-0.0	-0.0	-0.0	-0.4253483414649963	25.34406280517578	-379.7756958007813	-1.824219346046448	-20.62873649597168	-375.0675659179688	-0.0	-0.0	-0.0	-0.0	-0.0	-0.0	106301.25	7071.73291015625	-12059.7373046875
0.43	-0.0	-0.0	-0.0	-0.5248501896858215	25.43927764892578	-376.843017578125	-1.7641545534133911	-20.39229202270508	-376.22705078125	-0.0	-0.0	-0.0	-0.0	-0.0	-0.0	105901.6953125	6468.32373046875	-11928.013671875
0.4305	-0.0	-0.0	-0.0	-0.3410316705703735	24.99841690063477	-377.50787353515625	-1.6956385374069214	-20.39221954345703	-375.1882629394531	-0.0	-0.0	-0.0	-0.0	-0.0	-0.0	106031.6328125	6904.095703125	-11740.625
0.431	-0.0	-0.0	-0.0	-0.1994907557964325	25.302509307861328	-378.5671691894531	-1.556064248085022	-20.480493545532227	-373.7525329589844	-0.0	-0.0	-0.0	-0.0	-0.0	-0.0	106071.1875	6685.34130859375	-11910.8232421875
0.4315	-0.0	-0.0	-0.0	-0.4928321838378906	25.391565322875977	-378.7941284179688	-1.41937255859375	-20.11028289794922	-373.59222412109375	-0.0	-0.0	-0.0	-0.0	-0.0	-0.0	106174.796875	6576.41943359375	-11864.875
0.432	-0.0	-0.0	-0.0	-0.3674988746643066	25.245197296142575	-379.1886901855469	-0.7715087532997131	-20.52140617370605	-375.40325927734375	-0.0	-0.0	-0.0	-0.0	-0.0	-0.0	105988.2421875	6612.6396484375	-11719.6123046875
0.4325	-0.0	-0.0	-0.0	-0.3246890902519226	25.17760467529297	-378.3406066894531	-1.5080833435058594	-20.256622314453125	-375.6463317871094	-0.0	-0.0	-0.0	-0.0	-0.0	-0.0	106090.46875	6623.26806640625	-11779.376953125
0.433	-0.0	-0.0	-0.0	-0.2784220278263092	25.167116165161133	-376.928466796875	-1.2106409072875977	-20.74520492553711	-375.112060546875	-0.0	-0.0	-0.0	-0.0	-0.0	-0.0	106179.234375	6748.93798828125	-11615.240234375
0.4335	-0.0	-0.0	-0.0	-0.3810148537158966	25.256393432617188	-377.3348083496094	-1.0750149488449097	-20.147783279418945	-373.6747741699219	-0.0	-0.0	-0.0	-0.0	-0.0	-0.0	106141.265625	6739.02734375	-11555.712890625
0.434	-0.0	-0.0	-0.0	-0.0327012538909912	25.423946380615234	-378.2125854492188	-0.7835081815719604	-20.51163101196289	-375.5626220703125	-0.0	-0.0	-0.0	-0.0	-0.0	-0.0	105956.78125	6420.5029296875	-11592.3759765625
0.4345	-0.0	-0.0	-0.0	0.2910023927688598	25.180049896240234	-378.4351196289063	-1.1744771003723145	-20.39173698425293	-374.8634643554688	-0.0	-0.0	-0.0	-0.0	-0.0	-0.0	105783.1015625	6538.59814453125	-11637.869140625
0.435	-0.0	-0.0	-0.0	0.46912881731987	25.313034057617188	-378.03753662109375	-1.0431948900222778	-20.58957290649414	-376.5666809082031	-0.0	-0.0	-0.0	-0.0	-0.0	-0.0	106341.84375	6167.03271484375	-11634.275390625
